<?xml version="1.0" encoding="UTF-8" standalone="no"?>
<!DOCTYPE svg PUBLIC "-//W3C//DTD SVG 1.1//EN"
 "http://www.w3.org/Graphics/SVG/1.1/DTD/svg11.dtd">
<!-- Generated by graphviz version 2.47.0 (20210316.0004)
 -->
<!-- Title: dependencies Pages: 1 -->
<svg width="572pt" height="211pt"
 viewBox="0.00 0.00 572.00 211.00" xmlns="http://www.w3.org/2000/svg" xmlns:xlink="http://www.w3.org/1999/xlink">
<g id="graph0" class="graph" transform="scale(1 1) rotate(0) translate(4 207)">
<title>dependencies</title>
<polygon fill="white" stroke="transparent" points="-4,4 -4,-207 568,-207 568,4 -4,4"/>
<text text-anchor="start" x="261.01" y="-42.4" font-family="Times-12" font-weight="bold" font-size="14.00">Legend</text>
<polygon fill="#ffffb3" stroke="transparent" points="48,-10 48,-30 68,-30 68,-10 48,-10"/>
<text text-anchor="start" x="71.63" y="-15.4" font-family="Times-12" font-size="14.00"> &#160;Declarations</text>
<polygon fill="#8dd3c7" stroke="transparent" points="161,-10 161,-30 181,-30 181,-10 161,-10"/>
<text text-anchor="start" x="184.73" y="-15.4" font-family="Times-12" font-size="14.00"> &#160;Module</text>
<polygon fill="#80b1d3" stroke="transparent" points="247,-10 247,-30 267,-30 267,-10 247,-10"/>
<text text-anchor="start" x="270.78" y="-15.4" font-family="Times-12" font-size="14.00"> &#160;Bootstrap</text>
<polygon fill="#fdb462" stroke="transparent" points="344,-10 344,-30 364,-30 364,-10 344,-10"/>
<text text-anchor="start" x="367.67" y="-15.4" font-family="Times-12" font-size="14.00"> &#160;Providers</text>
<polygon fill="#fb8072" stroke="transparent" points="440,-10 440,-30 460,-30 460,-10 440,-10"/>
<text text-anchor="start" x="463.73" y="-15.4" font-family="Times-12" font-size="14.00"> &#160;Exports</text>
<g id="clust1" class="cluster">
<title>cluster_UserModule</title>
<polygon fill="none" stroke="black" stroke-dasharray="1,5" points="8,-70 8,-195 556,-195 556,-70 8,-70"/>
</g>
<g id="clust6" class="cluster">
<title>cluster_UserModule_providers</title>
<polygon fill="none" stroke="black" points="128,-78 128,-130 548,-130 548,-78 128,-78"/>
</g>
<g id="clust3" class="cluster">
<title>cluster_UserModule_imports</title>
<polygon fill="none" stroke="black" points="16,-78 16,-130 120,-130 120,-78 16,-78"/>
</g>
<!-- AuthModule -->
<g id="node1" class="node">
<title>AuthModule</title>
<polygon fill="#8dd3c7" stroke="black" points="111.55,-122 108.55,-126 87.55,-126 84.55,-122 24.45,-122 24.45,-86 111.55,-86 111.55,-122"/>
<text text-anchor="middle" x="68" y="-99.8" font-family="Times,serif" font-size="14.00">AuthModule</text>
</g>
<!-- UserModule -->
<g id="node2" class="node">
<title>UserModule</title>
<polygon fill="#8dd3c7" stroke="black" points="307.98,-187 304.98,-191 283.98,-191 280.98,-187 222.02,-187 222.02,-151 307.98,-151 307.98,-187"/>
<text text-anchor="middle" x="265" y="-164.8" font-family="Times,serif" font-size="14.00">UserModule</text>
</g>
<!-- AuthModule&#45;&gt;UserModule -->
<g id="edge1" class="edge">
<title>AuthModule&#45;&gt;UserModule</title>
<path fill="none" stroke="black" d="M68,-122.11C68,-141.34 68,-169 68,-169 68,-169 211.77,-169 211.77,-169"/>
<polygon fill="black" stroke="black" points="211.77,-172.5 221.77,-169 211.77,-165.5 211.77,-172.5"/>
</g>
<!-- AuthService -->
<g id="node3" class="node">
<title>AuthService</title>
<ellipse fill="#fdb462" stroke="black" cx="481" cy="-104" rx="59.11" ry="18"/>
<text text-anchor="middle" x="481" y="-99.8" font-family="Times,serif" font-size="14.00">AuthService</text>
</g>
<!-- AuthService&#45;&gt;UserModule -->
<g id="edge2" class="edge">
<title>AuthService&#45;&gt;UserModule</title>
<path fill="none" stroke="black" d="M481,-122.11C481,-141.34 481,-169 481,-169 481,-169 318.19,-169 318.19,-169"/>
<polygon fill="black" stroke="black" points="318.19,-165.5 308.19,-169 318.19,-172.5 318.19,-165.5"/>
</g>
<!-- PrismaService -->
<g id="node4" class="node">
<title>PrismaService</title>
<ellipse fill="#fdb462" stroke="black" cx="337" cy="-104" rx="66.63" ry="18"/>
<text text-anchor="middle" x="337" y="-99.8" font-family="Times,serif" font-size="14.00">PrismaService</text>
</g>
<!-- PrismaService&#45;&gt;UserModule -->
<g id="edge3" class="edge">
<title>PrismaService&#45;&gt;UserModule</title>
<path fill="none" stroke="black" d="M289.09,-116.84C289.09,-116.84 289.09,-140.52 289.09,-140.52"/>
<polygon fill="black" stroke="black" points="285.59,-140.52 289.09,-150.52 292.59,-140.52 285.59,-140.52"/>
</g>
<!-- UserService -->
<g id="node5" class="node">
<title>UserService</title>
<ellipse fill="#fdb462" stroke="black" cx="194" cy="-104" rx="58.44" ry="18"/>
<text text-anchor="middle" x="194" y="-99.8" font-family="Times,serif" font-size="14.00">UserService</text>
</g>
<!-- UserService&#45;&gt;UserModule -->
<g id="edge4" class="edge">
<title>UserService&#45;&gt;UserModule</title>
<path fill="none" stroke="black" d="M237.12,-116.23C237.12,-116.23 237.12,-140.68 237.12,-140.68"/>
<polygon fill="black" stroke="black" points="233.62,-140.68 237.12,-150.68 240.62,-140.68 233.62,-140.68"/>
</g>
</g>
</svg>
