<?xml version="1.0" encoding="UTF-8" standalone="no"?>
<!DOCTYPE svg PUBLIC "-//W3C//DTD SVG 1.1//EN"
 "http://www.w3.org/Graphics/SVG/1.1/DTD/svg11.dtd">
<!-- Generated by graphviz version 2.47.0 (20210316.0004)
 -->
<!-- Title: dependencies Pages: 1 -->
<svg width="968pt" height="211pt"
 viewBox="0.00 0.00 968.00 211.00" xmlns="http://www.w3.org/2000/svg" xmlns:xlink="http://www.w3.org/1999/xlink">
<g id="graph0" class="graph" transform="scale(1 1) rotate(0) translate(4 207)">
<title>dependencies</title>
<polygon fill="white" stroke="transparent" points="-4,4 -4,-207 964,-207 964,4 -4,4"/>
<text text-anchor="start" x="459.01" y="-42.4" font-family="Times-12" font-weight="bold" font-size="14.00">Legend</text>
<polygon fill="#ffffb3" stroke="transparent" points="246,-10 246,-30 266,-30 266,-10 246,-10"/>
<text text-anchor="start" x="269.63" y="-15.4" font-family="Times-12" font-size="14.00"> &#160;Declarations</text>
<polygon fill="#8dd3c7" stroke="transparent" points="359,-10 359,-30 379,-30 379,-10 359,-10"/>
<text text-anchor="start" x="382.73" y="-15.4" font-family="Times-12" font-size="14.00"> &#160;Module</text>
<polygon fill="#80b1d3" stroke="transparent" points="445,-10 445,-30 465,-30 465,-10 445,-10"/>
<text text-anchor="start" x="468.78" y="-15.4" font-family="Times-12" font-size="14.00"> &#160;Bootstrap</text>
<polygon fill="#fdb462" stroke="transparent" points="542,-10 542,-30 562,-30 562,-10 542,-10"/>
<text text-anchor="start" x="565.67" y="-15.4" font-family="Times-12" font-size="14.00"> &#160;Providers</text>
<polygon fill="#fb8072" stroke="transparent" points="638,-10 638,-30 658,-30 658,-10 638,-10"/>
<text text-anchor="start" x="661.73" y="-15.4" font-family="Times-12" font-size="14.00"> &#160;Exports</text>
<g id="clust1" class="cluster">
<title>cluster_AppModule</title>
<polygon fill="none" stroke="black" stroke-dasharray="1,5" points="8,-70 8,-195 952,-195 952,-70 8,-70"/>
</g>
<g id="clust6" class="cluster">
<title>cluster_AppModule_providers</title>
<polygon fill="none" stroke="black" points="506,-78 506,-130 944,-130 944,-78 506,-78"/>
</g>
<g id="clust3" class="cluster">
<title>cluster_AppModule_imports</title>
<polygon fill="none" stroke="black" points="16,-78 16,-130 498,-130 498,-78 16,-78"/>
</g>
<!-- AppointmentsModule -->
<g id="node1" class="node">
<title>AppointmentsModule</title>
<polygon fill="#8dd3c7" stroke="black" points="490.38,-122 487.38,-126 466.38,-126 463.38,-122 351.62,-122 351.62,-86 490.38,-86 490.38,-122"/>
<text text-anchor="middle" x="421" y="-99.8" font-family="Times,serif" font-size="14.00">AppointmentsModule</text>
</g>
<!-- AppModule -->
<g id="node5" class="node">
<title>AppModule</title>
<polygon fill="#8dd3c7" stroke="black" points="462.66,-187 459.66,-191 438.66,-191 435.66,-187 379.34,-187 379.34,-151 462.66,-151 462.66,-187"/>
<text text-anchor="middle" x="421" y="-164.8" font-family="Times,serif" font-size="14.00">AppModule</text>
</g>
<!-- AppointmentsModule&#45;&gt;AppModule -->
<g id="edge1" class="edge">
<title>AppointmentsModule&#45;&gt;AppModule</title>
<path fill="none" stroke="black" d="M421,-122.11C421,-122.11 421,-140.99 421,-140.99"/>
<polygon fill="black" stroke="black" points="417.5,-140.99 421,-150.99 424.5,-140.99 417.5,-140.99"/>
</g>
<!-- AuthModule -->
<g id="node2" class="node">
<title>AuthModule</title>
<polygon fill="#8dd3c7" stroke="black" points="333.55,-122 330.55,-126 309.55,-126 306.55,-122 246.45,-122 246.45,-86 333.55,-86 333.55,-122"/>
<text text-anchor="middle" x="290" y="-99.8" font-family="Times,serif" font-size="14.00">AuthModule</text>
</g>
<!-- AuthModule&#45;&gt;AppModule -->
<g id="edge2" class="edge">
<title>AuthModule&#45;&gt;AppModule</title>
<path fill="none" stroke="black" d="M290,-122.03C290,-138.4 290,-160 290,-160 290,-160 369.19,-160 369.19,-160"/>
<polygon fill="black" stroke="black" points="369.19,-163.5 379.19,-160 369.19,-156.5 369.19,-163.5"/>
</g>
<!-- ImagesModule -->
<g id="node3" class="node">
<title>ImagesModule</title>
<polygon fill="#8dd3c7" stroke="black" points="227.97,-122 224.97,-126 203.97,-126 200.97,-122 128.03,-122 128.03,-86 227.97,-86 227.97,-122"/>
<text text-anchor="middle" x="178" y="-99.8" font-family="Times,serif" font-size="14.00">ImagesModule</text>
</g>
<!-- ImagesModule&#45;&gt;AppModule -->
<g id="edge3" class="edge">
<title>ImagesModule&#45;&gt;AppModule</title>
<path fill="none" stroke="black" d="M178,-122.11C178,-141.34 178,-169 178,-169 178,-169 369.23,-169 369.23,-169"/>
<polygon fill="black" stroke="black" points="369.23,-172.5 379.23,-169 369.23,-165.5 369.23,-172.5"/>
</g>
<!-- UserModule -->
<g id="node4" class="node">
<title>UserModule</title>
<polygon fill="#8dd3c7" stroke="black" points="109.98,-122 106.98,-126 85.98,-126 82.98,-122 24.02,-122 24.02,-86 109.98,-86 109.98,-122"/>
<text text-anchor="middle" x="67" y="-99.8" font-family="Times,serif" font-size="14.00">UserModule</text>
</g>
<!-- UserModule&#45;&gt;AppModule -->
<g id="edge4" class="edge">
<title>UserModule&#45;&gt;AppModule</title>
<path fill="none" stroke="black" d="M67,-122.29C67,-144.21 67,-178 67,-178 67,-178 369,-178 369,-178"/>
<polygon fill="black" stroke="black" points="369,-181.5 379,-178 369,-174.5 369,-181.5"/>
</g>
<!-- ImagesService -->
<g id="node6" class="node">
<title>ImagesService</title>
<ellipse fill="#fdb462" stroke="black" cx="868" cy="-104" rx="67.75" ry="18"/>
<text text-anchor="middle" x="868" y="-99.8" font-family="Times,serif" font-size="14.00">ImagesService</text>
</g>
<!-- ImagesService&#45;&gt;AppModule -->
<g id="edge5" class="edge">
<title>ImagesService&#45;&gt;AppModule</title>
<path fill="none" stroke="black" d="M868,-122.29C868,-144.21 868,-178 868,-178 868,-178 473.05,-178 473.05,-178"/>
<polygon fill="black" stroke="black" points="473.05,-174.5 463.05,-178 473.05,-181.5 473.05,-174.5"/>
</g>
<!-- PrismaService -->
<g id="node7" class="node">
<title>PrismaService</title>
<ellipse fill="#fdb462" stroke="black" cx="715" cy="-104" rx="66.63" ry="18"/>
<text text-anchor="middle" x="715" y="-99.8" font-family="Times,serif" font-size="14.00">PrismaService</text>
</g>
<!-- PrismaService&#45;&gt;AppModule -->
<g id="edge6" class="edge">
<title>PrismaService&#45;&gt;AppModule</title>
<path fill="none" stroke="black" d="M715,-122.11C715,-141.34 715,-169 715,-169 715,-169 472.81,-169 472.81,-169"/>
<polygon fill="black" stroke="black" points="472.81,-165.5 462.81,-169 472.81,-172.5 472.81,-165.5"/>
</g>
<!-- UserService -->
<g id="node8" class="node">
<title>UserService</title>
<ellipse fill="#fdb462" stroke="black" cx="572" cy="-104" rx="58.44" ry="18"/>
<text text-anchor="middle" x="572" y="-99.8" font-family="Times,serif" font-size="14.00">UserService</text>
</g>
<!-- UserService&#45;&gt;AppModule -->
<g id="edge7" class="edge">
<title>UserService&#45;&gt;AppModule</title>
<path fill="none" stroke="black" d="M572,-122.03C572,-138.4 572,-160 572,-160 572,-160 472.66,-160 472.66,-160"/>
<polygon fill="black" stroke="black" points="472.66,-156.5 462.66,-160 472.66,-163.5 472.66,-156.5"/>
</g>
</g>
</svg>
