<?xml version="1.0" encoding="UTF-8" standalone="no"?>
<!DOCTYPE svg PUBLIC "-//W3C//DTD SVG 1.1//EN"
 "http://www.w3.org/Graphics/SVG/1.1/DTD/svg11.dtd">
<!-- Generated by graphviz version 2.47.0 (20210316.0004)
 -->
<!-- Title: dependencies Pages: 1 -->
<svg width="1144pt" height="344pt"
 viewBox="0.00 0.00 1144.00 344.00" xmlns="http://www.w3.org/2000/svg" xmlns:xlink="http://www.w3.org/1999/xlink">
<g id="graph0" class="graph" transform="scale(1 1) rotate(0) translate(4 340)">
<title>dependencies</title>
<polygon fill="white" stroke="transparent" points="-4,4 -4,-340 1140,-340 1140,4 -4,4"/>
<text text-anchor="start" x="547.01" y="-42.4" font-family="Times-12" font-weight="bold" font-size="14.00">Legend</text>
<polygon fill="#ffffb3" stroke="transparent" points="334,-10 334,-30 354,-30 354,-10 334,-10"/>
<text text-anchor="start" x="357.63" y="-15.4" font-family="Times-12" font-size="14.00"> &#160;Declarations</text>
<polygon fill="#8dd3c7" stroke="transparent" points="447,-10 447,-30 467,-30 467,-10 447,-10"/>
<text text-anchor="start" x="470.73" y="-15.4" font-family="Times-12" font-size="14.00"> &#160;Module</text>
<polygon fill="#80b1d3" stroke="transparent" points="533,-10 533,-30 553,-30 553,-10 533,-10"/>
<text text-anchor="start" x="556.78" y="-15.4" font-family="Times-12" font-size="14.00"> &#160;Bootstrap</text>
<polygon fill="#fdb462" stroke="transparent" points="630,-10 630,-30 650,-30 650,-10 630,-10"/>
<text text-anchor="start" x="653.67" y="-15.4" font-family="Times-12" font-size="14.00"> &#160;Providers</text>
<polygon fill="#fb8072" stroke="transparent" points="726,-10 726,-30 746,-30 746,-10 726,-10"/>
<text text-anchor="start" x="749.73" y="-15.4" font-family="Times-12" font-size="14.00"> &#160;Exports</text>
<g id="clust1" class="cluster">
<title>cluster_AppModule</title>
<polygon fill="none" stroke="black" stroke-dasharray="1,5" points="8,-70 8,-328 494,-328 494,-70 8,-70"/>
</g>
<g id="clust3" class="cluster">
<title>cluster_AppModule_imports</title>
<polygon fill="none" stroke="black" points="108,-146 108,-263 486,-263 486,-146 108,-146"/>
</g>
<g id="clust6" class="cluster">
<title>cluster_AppModule_providers</title>
<polygon fill="none" stroke="black" points="16,-78 16,-130 454,-130 454,-78 16,-78"/>
</g>
<g id="clust7" class="cluster">
<title>cluster_AppointmentsModule</title>
<polygon fill="none" stroke="black" stroke-dasharray="1,5" points="502,-70 502,-138 724,-138 724,-70 502,-70"/>
</g>
<g id="clust12" class="cluster">
<title>cluster_AppointmentsModule_providers</title>
<polygon fill="none" stroke="black" points="510,-78 510,-130 716,-130 716,-78 510,-78"/>
</g>
<g id="clust13" class="cluster">
<title>cluster_AuthModule</title>
<polygon fill="none" stroke="black" stroke-dasharray="1,5" points="732,-70 732,-138 1128,-138 1128,-70 732,-70"/>
</g>
<g id="clust16" class="cluster">
<title>cluster_AuthModule_exports</title>
<polygon fill="none" stroke="black" points="740,-78 740,-130 846,-130 846,-78 740,-78"/>
</g>
<g id="clust18" class="cluster">
<title>cluster_AuthModule_providers</title>
<polygon fill="none" stroke="black" points="854,-78 854,-130 1120,-130 1120,-78 854,-78"/>
</g>
<!-- AppointmentsModule -->
<g id="node1" class="node">
<title>AppointmentsModule</title>
<polygon fill="#8dd3c7" stroke="black" points="372.38,-190 369.38,-194 348.38,-194 345.38,-190 233.62,-190 233.62,-154 372.38,-154 372.38,-190"/>
<text text-anchor="middle" x="303" y="-167.8" font-family="Times,serif" font-size="14.00">AppointmentsModule</text>
</g>
<!-- AppModule -->
<g id="node5" class="node">
<title>AppModule</title>
<polygon fill="#8dd3c7" stroke="black" points="200.66,-320 197.66,-324 176.66,-324 173.66,-320 117.34,-320 117.34,-284 200.66,-284 200.66,-320"/>
<text text-anchor="middle" x="159" y="-297.8" font-family="Times,serif" font-size="14.00">AppModule</text>
</g>
<!-- AppointmentsModule&#45;&gt;AppModule -->
<g id="edge1" class="edge">
<title>AppointmentsModule&#45;&gt;AppModule</title>
<path fill="none" stroke="black" d="M303,-190.08C303,-225.8 303,-302 303,-302 303,-302 211.04,-302 211.04,-302"/>
<polygon fill="black" stroke="black" points="211.04,-298.5 201.04,-302 211.04,-305.5 211.04,-298.5"/>
</g>
<!-- AuthModule -->
<g id="node2" class="node">
<title>AuthModule</title>
<polygon fill="#8dd3c7" stroke="black" points="477.55,-190 474.55,-194 453.55,-194 450.55,-190 390.45,-190 390.45,-154 477.55,-154 477.55,-190"/>
<text text-anchor="middle" x="434" y="-167.8" font-family="Times,serif" font-size="14.00">AuthModule</text>
</g>
<!-- UserModule -->
<g id="node4" class="node">
<title>UserModule</title>
<polygon fill="#8dd3c7" stroke="black" points="201.98,-255 198.98,-259 177.98,-259 174.98,-255 116.02,-255 116.02,-219 201.98,-219 201.98,-255"/>
<text text-anchor="middle" x="159" y="-232.8" font-family="Times,serif" font-size="14.00">UserModule</text>
</g>
<!-- AuthModule&#45;&gt;UserModule -->
<g id="edge15" class="edge">
<title>AuthModule&#45;&gt;UserModule</title>
<path fill="none" stroke="black" d="M419.41,-190.11C419.41,-209.34 419.41,-237 419.41,-237 419.41,-237 212,-237 212,-237"/>
<polygon fill="black" stroke="black" points="212,-233.5 202,-237 212,-240.5 212,-233.5"/>
</g>
<!-- AuthModule&#45;&gt;AppModule -->
<g id="edge2" class="edge">
<title>AuthModule&#45;&gt;AppModule</title>
<path fill="none" stroke="black" d="M448.59,-190.11C448.59,-228.59 448.59,-315 448.59,-315 448.59,-315 210.8,-315 210.8,-315"/>
<polygon fill="black" stroke="black" points="210.8,-311.5 200.8,-315 210.8,-318.5 210.8,-311.5"/>
</g>
<!-- AuthService  -->
<g id="node10" class="node">
<title>AuthService </title>
<polygon fill="#fb8072" stroke="black" points="837.98,-122 748.02,-122 748.02,-86 837.98,-86 837.98,-122"/>
<text text-anchor="middle" x="793" y="-99.8" font-family="Times,serif" font-size="14.00">AuthService </text>
</g>
<!-- AuthModule&#45;&gt;AuthService  -->
<g id="edge10" class="edge">
<title>AuthModule&#45;&gt;AuthService </title>
<path fill="none" stroke="black" stroke-dasharray="5,2" d="M477.66,-163C573.34,-163 793,-163 793,-163 793,-163 793,-132.02 793,-132.02"/>
<polygon fill="black" stroke="black" points="796.5,-132.02 793,-122.02 789.5,-132.02 796.5,-132.02"/>
</g>
<!-- ImagesModule -->
<g id="node3" class="node">
<title>ImagesModule</title>
<polygon fill="#8dd3c7" stroke="black" points="215.97,-190 212.97,-194 191.97,-194 188.97,-190 116.03,-190 116.03,-154 215.97,-154 215.97,-190"/>
<text text-anchor="middle" x="166" y="-167.8" font-family="Times,serif" font-size="14.00">ImagesModule</text>
</g>
<!-- ImagesModule&#45;&gt;AppModule -->
<g id="edge3" class="edge">
<title>ImagesModule&#45;&gt;AppModule</title>
<path fill="none" stroke="black" d="M208.99,-190.18C208.99,-223.28 208.99,-290 208.99,-290 208.99,-290 208.16,-290 208.16,-290"/>
<polygon fill="black" stroke="black" points="210.73,-286.5 200.73,-290 210.73,-293.5 210.73,-286.5"/>
</g>
<!-- UserModule&#45;&gt;AppModule -->
<g id="edge4" class="edge">
<title>UserModule&#45;&gt;AppModule</title>
<path fill="none" stroke="black" d="M159,-255.11C159,-255.11 159,-273.99 159,-273.99"/>
<polygon fill="black" stroke="black" points="155.5,-273.99 159,-283.99 162.5,-273.99 155.5,-273.99"/>
</g>
<!-- ImagesService -->
<g id="node6" class="node">
<title>ImagesService</title>
<ellipse fill="#fdb462" stroke="black" cx="226" cy="-104" rx="67.75" ry="18"/>
<text text-anchor="middle" x="226" y="-99.8" font-family="Times,serif" font-size="14.00">ImagesService</text>
</g>
<!-- ImagesService&#45;&gt;ImagesModule -->
<g id="edge13" class="edge">
<title>ImagesService&#45;&gt;ImagesModule</title>
<path fill="none" stroke="black" d="M177.41,-116.79C177.41,-116.79 177.41,-143.88 177.41,-143.88"/>
<polygon fill="black" stroke="black" points="173.91,-143.88 177.41,-153.88 180.91,-143.88 173.91,-143.88"/>
</g>
<!-- ImagesService&#45;&gt;AppModule -->
<g id="edge5" class="edge">
<title>ImagesService&#45;&gt;AppModule</title>
<path fill="none" stroke="black" d="M224.77,-122.06C224.77,-169.86 224.77,-296 224.77,-296 224.77,-296 211.03,-296 211.03,-296"/>
<polygon fill="black" stroke="black" points="211.03,-292.5 201.03,-296 211.03,-299.5 211.03,-292.5"/>
</g>
<!-- PrismaService -->
<g id="node7" class="node">
<title>PrismaService</title>
<ellipse fill="#fdb462" stroke="black" cx="379" cy="-104" rx="66.63" ry="18"/>
<text text-anchor="middle" x="379" y="-99.8" font-family="Times,serif" font-size="14.00">PrismaService</text>
</g>
<!-- PrismaService&#45;&gt;AppointmentsModule -->
<g id="edge9" class="edge">
<title>PrismaService&#45;&gt;AppointmentsModule</title>
<path fill="none" stroke="black" d="M342.31,-119.09C342.31,-119.09 342.31,-143.56 342.31,-143.56"/>
<polygon fill="black" stroke="black" points="338.81,-143.56 342.31,-153.56 345.81,-143.56 338.81,-143.56"/>
</g>
<!-- PrismaService&#45;&gt;ImagesModule -->
<g id="edge14" class="edge">
<title>PrismaService&#45;&gt;ImagesModule</title>
<path fill="none" stroke="black" d="M327.25,-115.46C327.25,-123.57 327.25,-133 327.25,-133 327.25,-133 196.7,-133 196.7,-133 196.7,-133 196.7,-143.87 196.7,-143.87"/>
<polygon fill="black" stroke="black" points="193.2,-143.87 196.7,-153.87 200.2,-143.87 193.2,-143.87"/>
</g>
<!-- PrismaService&#45;&gt;UserModule -->
<g id="edge17" class="edge">
<title>PrismaService&#45;&gt;UserModule</title>
<path fill="none" stroke="black" d="M378.37,-122.03C378.37,-156.42 378.37,-228 378.37,-228 378.37,-228 212.08,-228 212.08,-228"/>
<polygon fill="black" stroke="black" points="212.08,-224.5 202.08,-228 212.08,-231.5 212.08,-224.5"/>
</g>
<!-- PrismaService&#45;&gt;AppModule -->
<g id="edge6" class="edge">
<title>PrismaService&#45;&gt;AppModule</title>
<path fill="none" stroke="black" d="M384.3,-122.1C384.3,-172.03 384.3,-308 384.3,-308 384.3,-308 210.85,-308 210.85,-308"/>
<polygon fill="black" stroke="black" points="210.85,-304.5 200.85,-308 210.85,-311.5 210.85,-304.5"/>
</g>
<!-- UserService -->
<g id="node8" class="node">
<title>UserService</title>
<ellipse fill="#fdb462" stroke="black" cx="82" cy="-104" rx="58.44" ry="18"/>
<text text-anchor="middle" x="82" y="-99.8" font-family="Times,serif" font-size="14.00">UserService</text>
</g>
<!-- UserService&#45;&gt;UserModule -->
<g id="edge18" class="edge">
<title>UserService&#45;&gt;UserModule</title>
<path fill="none" stroke="black" d="M85.27,-122.21C85.27,-158.64 85.27,-237 85.27,-237 85.27,-237 105.68,-237 105.68,-237"/>
<polygon fill="black" stroke="black" points="105.68,-240.5 115.68,-237 105.68,-233.5 105.68,-240.5"/>
</g>
<!-- UserService&#45;&gt;AppModule -->
<g id="edge7" class="edge">
<title>UserService&#45;&gt;AppModule</title>
<path fill="none" stroke="black" d="M54.52,-120.2C54.52,-167.49 54.52,-302 54.52,-302 54.52,-302 107.11,-302 107.11,-302"/>
<polygon fill="black" stroke="black" points="107.11,-305.5 117.11,-302 107.11,-298.5 107.11,-305.5"/>
</g>
<!-- AppointmentsService -->
<g id="node9" class="node">
<title>AppointmentsService</title>
<ellipse fill="#fdb462" stroke="black" cx="613" cy="-104" rx="94.92" ry="18"/>
<text text-anchor="middle" x="613" y="-99.8" font-family="Times,serif" font-size="14.00">AppointmentsService</text>
</g>
<!-- AppointmentsService&#45;&gt;AppointmentsModule -->
<g id="edge8" class="edge">
<title>AppointmentsService&#45;&gt;AppointmentsModule</title>
<path fill="none" stroke="black" d="M613,-122.13C613,-132.71 613,-144 613,-144 613,-144 357.38,-144 357.38,-144 357.38,-144 357.38,-144.98 357.38,-144.98"/>
<polygon fill="black" stroke="black" points="353.88,-143.79 357.38,-153.79 360.88,-143.79 353.88,-143.79"/>
</g>
<!-- AuthService -->
<g id="node11" class="node">
<title>AuthService</title>
<ellipse fill="#fdb462" stroke="black" cx="1053" cy="-104" rx="59.11" ry="18"/>
<text text-anchor="middle" x="1053" y="-99.8" font-family="Times,serif" font-size="14.00">AuthService</text>
</g>
<!-- AuthService&#45;&gt;AuthModule -->
<g id="edge11" class="edge">
<title>AuthService&#45;&gt;AuthModule</title>
<path fill="none" stroke="black" d="M1033.23,-121.09C1033.23,-143.77 1033.23,-181 1033.23,-181 1033.23,-181 487.58,-181 487.58,-181"/>
<polygon fill="black" stroke="black" points="487.58,-177.5 477.58,-181 487.58,-184.5 487.58,-177.5"/>
</g>
<!-- AuthService&#45;&gt;UserModule -->
<g id="edge16" class="edge">
<title>AuthService&#45;&gt;UserModule</title>
<path fill="none" stroke="black" d="M1072.77,-121.13C1072.77,-158.9 1072.77,-246 1072.77,-246 1072.77,-246 212.15,-246 212.15,-246"/>
<polygon fill="black" stroke="black" points="212.15,-242.5 202.15,-246 212.15,-249.5 212.15,-242.5"/>
</g>
<!-- JwtStrategy -->
<g id="node12" class="node">
<title>JwtStrategy</title>
<ellipse fill="#fdb462" stroke="black" cx="919" cy="-104" rx="56.76" ry="18"/>
<text text-anchor="middle" x="919" y="-99.8" font-family="Times,serif" font-size="14.00">JwtStrategy</text>
</g>
<!-- JwtStrategy&#45;&gt;AuthModule -->
<g id="edge12" class="edge">
<title>JwtStrategy&#45;&gt;AuthModule</title>
<path fill="none" stroke="black" d="M919,-122.22C919,-142.37 919,-172 919,-172 919,-172 487.9,-172 487.9,-172"/>
<polygon fill="black" stroke="black" points="487.9,-168.5 477.9,-172 487.9,-175.5 487.9,-168.5"/>
</g>
</g>
</svg>
