<?xml version="1.0" encoding="UTF-8" standalone="no"?>
<!DOCTYPE svg PUBLIC "-//W3C//DTD SVG 1.1//EN"
 "http://www.w3.org/Graphics/SVG/1.1/DTD/svg11.dtd">
<!-- Generated by graphviz version 2.47.0 (20210316.0004)
 -->
<!-- Title: dependencies Pages: 1 -->
<svg width="614pt" height="279pt"
 viewBox="0.00 0.00 614.00 279.00" xmlns="http://www.w3.org/2000/svg" xmlns:xlink="http://www.w3.org/1999/xlink">
<g id="graph0" class="graph" transform="scale(1 1) rotate(0) translate(4 275)">
<title>dependencies</title>
<polygon fill="white" stroke="transparent" points="-4,4 -4,-275 610,-275 610,4 -4,4"/>
<text text-anchor="start" x="282.01" y="-42.4" font-family="Times-12" font-weight="bold" font-size="14.00">Legend</text>
<polygon fill="#ffffb3" stroke="transparent" points="69,-10 69,-30 89,-30 89,-10 69,-10"/>
<text text-anchor="start" x="92.63" y="-15.4" font-family="Times-12" font-size="14.00"> &#160;Declarations</text>
<polygon fill="#8dd3c7" stroke="transparent" points="182,-10 182,-30 202,-30 202,-10 182,-10"/>
<text text-anchor="start" x="205.73" y="-15.4" font-family="Times-12" font-size="14.00"> &#160;Module</text>
<polygon fill="#80b1d3" stroke="transparent" points="268,-10 268,-30 288,-30 288,-10 268,-10"/>
<text text-anchor="start" x="291.78" y="-15.4" font-family="Times-12" font-size="14.00"> &#160;Bootstrap</text>
<polygon fill="#fdb462" stroke="transparent" points="365,-10 365,-30 385,-30 385,-10 365,-10"/>
<text text-anchor="start" x="388.67" y="-15.4" font-family="Times-12" font-size="14.00"> &#160;Providers</text>
<polygon fill="#fb8072" stroke="transparent" points="461,-10 461,-30 481,-30 481,-10 461,-10"/>
<text text-anchor="start" x="484.73" y="-15.4" font-family="Times-12" font-size="14.00"> &#160;Exports</text>
<g id="clust1" class="cluster">
<title>cluster_AppModule</title>
<polygon fill="none" stroke="black" stroke-dasharray="1,5" points="8,-70 8,-263 308,-263 308,-70 8,-70"/>
</g>
<g id="clust3" class="cluster">
<title>cluster_AppModule_imports</title>
<polygon fill="none" stroke="black" points="92,-146 92,-198 300,-198 300,-146 92,-146"/>
</g>
<g id="clust6" class="cluster">
<title>cluster_AppModule_providers</title>
<polygon fill="none" stroke="black" points="16,-78 16,-130 300,-130 300,-78 16,-78"/>
</g>
<g id="clust7" class="cluster">
<title>cluster_AuthModule</title>
<polygon fill="none" stroke="black" stroke-dasharray="1,5" points="316,-70 316,-138 598,-138 598,-70 316,-70"/>
</g>
<g id="clust12" class="cluster">
<title>cluster_AuthModule_providers</title>
<polygon fill="none" stroke="black" points="324,-78 324,-130 590,-130 590,-78 324,-78"/>
</g>
<!-- AuthModule -->
<g id="node1" class="node">
<title>AuthModule</title>
<polygon fill="#8dd3c7" stroke="black" points="291.55,-190 288.55,-194 267.55,-194 264.55,-190 204.45,-190 204.45,-154 291.55,-154 291.55,-190"/>
<text text-anchor="middle" x="248" y="-167.8" font-family="Times,serif" font-size="14.00">AuthModule</text>
</g>
<!-- AppModule -->
<g id="node3" class="node">
<title>AppModule</title>
<polygon fill="#8dd3c7" stroke="black" points="153.66,-255 150.66,-259 129.66,-259 126.66,-255 70.34,-255 70.34,-219 153.66,-219 153.66,-255"/>
<text text-anchor="middle" x="112" y="-232.8" font-family="Times,serif" font-size="14.00">AppModule</text>
</g>
<!-- AuthModule&#45;&gt;AppModule -->
<g id="edge1" class="edge">
<title>AuthModule&#45;&gt;AppModule</title>
<path fill="none" stroke="black" d="M248,-190.28C248,-211.32 248,-243 248,-243 248,-243 163.91,-243 163.91,-243"/>
<polygon fill="black" stroke="black" points="163.91,-239.5 153.91,-243 163.91,-246.5 163.91,-239.5"/>
</g>
<!-- UserModule -->
<g id="node2" class="node">
<title>UserModule</title>
<polygon fill="#8dd3c7" stroke="black" points="185.98,-190 182.98,-194 161.98,-194 158.98,-190 100.02,-190 100.02,-154 185.98,-154 185.98,-190"/>
<text text-anchor="middle" x="143" y="-167.8" font-family="Times,serif" font-size="14.00">UserModule</text>
</g>
<!-- UserModule&#45;&gt;AppModule -->
<g id="edge2" class="edge">
<title>UserModule&#45;&gt;AppModule</title>
<path fill="none" stroke="black" d="M126.92,-190.11C126.92,-190.11 126.92,-208.99 126.92,-208.99"/>
<polygon fill="black" stroke="black" points="123.42,-208.99 126.92,-218.99 130.42,-208.99 123.42,-208.99"/>
</g>
<!-- PrismaService -->
<g id="node4" class="node">
<title>PrismaService</title>
<ellipse fill="#fdb462" stroke="black" cx="91" cy="-104" rx="66.63" ry="18"/>
<text text-anchor="middle" x="91" y="-99.8" font-family="Times,serif" font-size="14.00">PrismaService</text>
</g>
<!-- PrismaService&#45;&gt;UserModule -->
<g id="edge8" class="edge">
<title>PrismaService&#45;&gt;UserModule</title>
<path fill="none" stroke="black" d="M128.91,-119.09C128.91,-119.09 128.91,-143.56 128.91,-143.56"/>
<polygon fill="black" stroke="black" points="125.41,-143.56 128.91,-153.56 132.41,-143.56 125.41,-143.56"/>
</g>
<!-- PrismaService&#45;&gt;AppModule -->
<g id="edge3" class="edge">
<title>PrismaService&#45;&gt;AppModule</title>
<path fill="none" stroke="black" d="M85.09,-121.94C85.09,-121.94 85.09,-208.92 85.09,-208.92"/>
<polygon fill="black" stroke="black" points="81.59,-208.92 85.09,-218.92 88.59,-208.92 81.59,-208.92"/>
</g>
<!-- UserService -->
<g id="node5" class="node">
<title>UserService</title>
<ellipse fill="#fdb462" stroke="black" cx="234" cy="-104" rx="58.44" ry="18"/>
<text text-anchor="middle" x="234" y="-99.8" font-family="Times,serif" font-size="14.00">UserService</text>
</g>
<!-- UserService&#45;&gt;UserModule -->
<g id="edge9" class="edge">
<title>UserService&#45;&gt;UserModule</title>
<path fill="none" stroke="black" d="M179.18,-110.28C179.18,-110.28 179.18,-143.8 179.18,-143.8"/>
<polygon fill="black" stroke="black" points="175.68,-143.8 179.18,-153.8 182.68,-143.8 175.68,-143.8"/>
</g>
<!-- UserService&#45;&gt;AppModule -->
<g id="edge4" class="edge">
<title>UserService&#45;&gt;AppModule</title>
<path fill="none" stroke="black" d="M195.11,-117.59C195.11,-150.35 195.11,-231 195.11,-231 195.11,-231 164.04,-231 164.04,-231"/>
<polygon fill="black" stroke="black" points="164.04,-227.5 154.04,-231 164.04,-234.5 164.04,-227.5"/>
</g>
<!-- AuthService -->
<g id="node6" class="node">
<title>AuthService</title>
<ellipse fill="#fdb462" stroke="black" cx="391" cy="-104" rx="59.11" ry="18"/>
<text text-anchor="middle" x="391" y="-99.8" font-family="Times,serif" font-size="14.00">AuthService</text>
</g>
<!-- AuthService&#45;&gt;AuthModule -->
<g id="edge5" class="edge">
<title>AuthService&#45;&gt;AuthModule</title>
<path fill="none" stroke="black" d="M410.77,-121.27C410.77,-139.62 410.77,-166 410.77,-166 410.77,-166 301.62,-166 301.62,-166"/>
<polygon fill="black" stroke="black" points="301.62,-162.5 291.62,-166 301.62,-169.5 301.62,-162.5"/>
</g>
<!-- AuthService&#45;&gt;UserModule -->
<g id="edge7" class="edge">
<title>AuthService&#45;&gt;UserModule</title>
<path fill="none" stroke="black" d="M371.23,-121C371.23,-129.5 371.23,-138 371.23,-138 371.23,-138 182.59,-138 182.59,-138 182.59,-138 182.59,-143.81 182.59,-143.81"/>
<polygon fill="black" stroke="black" points="179.09,-143.81 182.59,-153.81 186.09,-143.81 179.09,-143.81"/>
</g>
<!-- JwtStrategy -->
<g id="node7" class="node">
<title>JwtStrategy</title>
<ellipse fill="#fdb462" stroke="black" cx="525" cy="-104" rx="56.76" ry="18"/>
<text text-anchor="middle" x="525" y="-99.8" font-family="Times,serif" font-size="14.00">JwtStrategy</text>
</g>
<!-- JwtStrategy&#45;&gt;AuthModule -->
<g id="edge6" class="edge">
<title>JwtStrategy&#45;&gt;AuthModule</title>
<path fill="none" stroke="black" d="M525,-122.29C525,-144.21 525,-178 525,-178 525,-178 301.59,-178 301.59,-178"/>
<polygon fill="black" stroke="black" points="301.59,-174.5 291.59,-178 301.59,-181.5 301.59,-174.5"/>
</g>
</g>
</svg>
